<svg width="52" height="52" viewBox="0 0 52 52" fill="none" xmlns="http://www.w3.org/2000/svg">
<path d="M28 6C23.2 3.8147e-06 16.6667 5.5 14 9L10.5 18C11.1667 23.1667 12.6 33.8 13 35C13.5 36.5 14 42.5 14.5 44.5C15 46.5 17.5 49 23.5 48.5C28.3 48.1 33.1667 44.3333 35 42.5L40 39.5L46.5 27L45 20L39.5 9L28 6Z" fill="white"/>
<path d="M22.3989 0.0777867C22.4876 0.115445 22.6016 0.102893 22.6396 0.0652338C22.6903 0.0275751 22.6142 -0.0100837 22.4749 0.00246924C22.3355 0.00246924 22.2975 0.040128 22.3989 0.0777867Z" fill="black"/>
<path d="M23.159 0.0777893C23.387 0.102895 23.7291 0.102895 23.9191 0.0777893C24.1091 0.0526835 23.9191 0.0275777 23.501 0.0275777C23.083 0.0275777 22.9309 0.0526835 23.159 0.0777893Z" fill="black"/>
<path d="M24.7046 0.253509C24.7046 0.316274 24.8186 0.366486 24.958 0.366486C25.0973 0.366486 25.2114 0.34138 25.2114 0.316274C25.2114 0.291168 25.0973 0.240957 24.958 0.203298C24.8186 0.165639 24.7046 0.190745 24.7046 0.253509Z" fill="black"/>
<path d="M21.2586 0.328827C21.4107 0.353933 21.664 0.353933 21.8287 0.328827C21.9808 0.303721 21.8541 0.278615 21.5374 0.278615C21.2206 0.278615 21.0939 0.303721 21.2586 0.328827Z" fill="black"/>
<path d="M25.9462 0.454374C26.0349 0.492032 26.1489 0.479479 26.1869 0.441821C26.2376 0.404162 26.1616 0.366503 26.0222 0.379056C25.8828 0.379056 25.8448 0.416715 25.9462 0.454374Z" fill="black"/>
<path d="M19.8017 0.705414C19.9157 0.73052 20.1184 0.73052 20.2451 0.705414C20.3591 0.667755 20.2578 0.642649 20.0171 0.642649C19.7763 0.642649 19.675 0.667755 19.8017 0.705414Z" fill="black"/>
<path d="M26.4529 0.705414C26.529 0.73052 26.681 0.73052 26.7697 0.705414C26.8457 0.667755 26.7823 0.642649 26.605 0.642649C26.4276 0.642649 26.3643 0.667755 26.4529 0.705414Z" fill="black"/>
<path d="M18.5221 1.18245C18.3194 1.42095 18.3828 1.42095 18.8262 1.18245C19.1176 1.03181 19.1429 0.994155 18.9402 0.994155C18.8008 1.00671 18.6108 1.08203 18.5221 1.18245Z" fill="black"/>
<path d="M27.7832 1.25774C28.0619 1.39582 28.3153 1.48369 28.3533 1.43348C28.3913 1.39582 28.3026 1.33306 28.1506 1.28284C27.9986 1.24519 27.8719 1.16987 27.8719 1.1071C27.8719 1.04434 27.7452 0.994128 27.5932 0.994128C27.3524 1.00668 27.3904 1.05689 27.7832 1.25774Z" fill="black"/>
<path d="M21.6133 1.6971C19.1302 2.23687 16.6724 3.6428 14.7594 5.65127C13.9106 6.55508 12.9097 7.961 12.7323 8.50078C12.669 8.73928 12.5803 8.77694 12.3776 8.71418C11.7948 8.53844 9.9705 8.50078 9.26103 8.65141C6.72723 9.20374 4.59883 11.6013 3.77534 14.8274C3.48396 16.0074 3.52196 16.9238 3.90203 17.6895L4.14275 18.1791L3.43328 18.5933C2.57179 19.0954 1.97634 19.9239 1.76097 20.9282C1.67228 21.3173 1.55826 21.6939 1.49492 21.7692C1.19086 22.1081 1.48225 25.2966 1.98901 27.167C2.53378 29.188 4.06673 31.1588 5.89107 32.2007C6.67655 32.64 6.7779 32.753 6.85392 33.1421C7.03128 34.2217 8.08281 35.4142 9.45107 36.0419C10.3759 36.4687 12.0989 36.8076 12.7957 36.6946C13.3405 36.6067 13.3151 36.5314 13.5558 38.7156C13.8979 41.9794 14.354 45.0297 14.544 45.4314C14.8481 46.0591 15.9249 47.101 16.7738 47.5654C17.3312 47.8793 17.5086 48.055 17.5719 48.3312C17.6479 48.7077 17.8633 48.8333 17.8633 48.5069C17.8633 48.2935 18.2054 48.2684 18.6741 48.4316C18.8768 48.5195 19.0035 48.6701 19.0289 48.9086L19.0795 49.2601L19.2316 48.9211C19.3456 48.6324 19.4343 48.5822 19.7257 48.6324C19.9157 48.6575 20.2958 48.7203 20.5618 48.758C20.8532 48.8082 21.0306 48.896 21.0306 49.009C21.0306 49.2601 21.2839 49.2475 21.4866 48.9714C21.6133 48.7956 21.6767 48.7831 21.8034 48.9211C21.8921 48.9965 22.0694 49.0718 22.1834 49.0718C22.2975 49.0718 22.4242 49.1597 22.4748 49.2601C22.5508 49.4735 22.9309 49.5237 22.9309 49.3228C22.9309 49.2475 23.0069 49.1973 23.1083 49.1973C23.2096 49.1973 23.311 49.1094 23.3617 49.009C23.4123 48.8709 23.6404 48.8207 24.3372 48.8333C24.8946 48.8458 25.2747 48.7956 25.338 48.7077C25.376 48.6199 25.5154 48.5948 25.6294 48.645C25.7561 48.6826 25.9208 48.6575 26.0222 48.5822C26.1615 48.4692 26.2502 48.5069 26.4656 48.7831C26.719 49.122 26.7316 49.1345 26.9217 48.896C27.023 48.758 27.1117 48.5195 27.1117 48.3688C27.1117 48.1554 27.2637 48.055 27.9605 47.8165C29.9876 47.1386 33.3829 44.8666 34.4851 43.4606L35.0172 42.7702L35.5999 42.8455C36.4108 42.946 37.5256 42.7451 38.4758 42.3058C39.4767 41.8413 40.8196 40.5986 41.1236 39.8454L41.3517 39.3182L42.4286 39.3307C43.3027 39.3307 43.6321 39.2805 44.0882 39.0546C44.8863 38.678 45.5071 38.1382 46.1786 37.2595C47.3315 35.7908 47.7495 34.2593 47.3188 33.1296C46.9261 32.0877 46.9261 32.1254 47.8129 31.1839C48.3703 30.6065 48.8391 29.9537 49.1811 29.2633C49.6752 28.2842 49.7132 28.1461 49.7132 27.1921C49.7006 25.4347 48.9278 24.1919 47.2301 23.1877C46.698 22.8739 46.4066 22.6228 46.4573 22.5349C46.508 22.4596 46.698 22.1834 46.8881 21.9198C47.0781 21.6562 47.4202 21.0035 47.6609 20.4763C48.0409 19.5724 48.0789 19.4093 48.0789 18.1289C48.0789 16.8736 48.0536 16.6853 47.7242 16.0325C46.9387 14.4509 45.1397 13.2332 43.3407 13.0826L42.4412 13.0073V12.48C42.4412 11.7771 42.0105 10.1201 41.5924 9.27906C41.3897 8.83971 40.8956 8.22461 40.2621 7.60952C39.4387 6.79358 39.0459 6.51742 38.0957 6.07806C36.5375 5.35 35.6886 5.1366 34.0036 5.04873C32.9775 4.99852 32.344 5.03617 31.5839 5.18681C31.0264 5.29979 30.5197 5.38766 30.4437 5.38766C30.3803 5.38766 30.2029 5.1617 30.0509 4.89809C29.6075 4.11981 28.0745 2.80176 27.061 2.31219C25.4267 1.54647 23.425 1.32051 21.6133 1.6971ZM20.5618 5.47552C19.4089 6.91911 18.9528 7.39612 18.8388 7.28315C18.5094 6.95677 19.2569 5.88977 20.3084 5.19936C20.6632 4.96086 20.9799 4.78511 21.0052 4.81022C21.0306 4.84788 20.8279 5.1366 20.5618 5.47552ZM23.8051 5.22447C23.501 5.48808 22.8676 6.05296 22.4115 6.47976C21.8287 7.03209 21.512 7.25804 21.36 7.19527C21.0812 7.09485 21.0939 7.00698 21.5247 6.42955C21.9807 5.8019 22.6649 5.27468 23.3617 4.99852C24.2738 4.63448 24.4259 4.7098 23.8051 5.22447ZM32.9268 10.3335C33.1168 10.5595 32.8634 11.1997 32.42 11.6641L32.116 11.9779L32.078 11.6892C32.0146 11.2875 32.42 10.1578 32.6227 10.1578C32.7114 10.1578 32.8508 10.2331 32.9268 10.3335ZM34.181 11.5511C34.1177 12.1788 33.7883 12.7813 33.4462 12.8943C33.3195 12.9445 33.3069 12.8315 33.3702 12.4047C33.5982 10.8607 33.5856 10.9109 33.915 10.9109C34.2317 10.9109 34.2317 10.936 34.181 11.5511ZM36.7402 11.5386C37.2216 11.8399 36.8162 13.3964 36.0434 14.2626C35.8787 14.4509 35.676 14.6894 35.5999 14.7647C35.4226 14.9781 35.0932 14.9655 35.0932 14.7521C35.0932 14.6643 35.1819 14.5136 35.2832 14.4258C35.3846 14.3379 35.4733 14.1998 35.4733 14.1119C35.4733 14.0366 35.6126 13.6224 35.79 13.1956C35.9673 12.7688 36.1067 12.229 36.1067 12.003C36.1067 11.4131 36.3094 11.2624 36.7402 11.5386ZM28.4039 20.4386C28.8474 20.5767 29.6075 20.765 30.0889 20.8403C30.9377 20.9909 31.0011 21.0286 31.6599 21.7315C32.0273 22.1332 32.496 22.5475 32.6861 22.6479C33.0155 22.8236 33.0408 22.8739 32.9268 23.2379C32.7494 23.853 32.7874 25.2213 33.0028 25.9242C33.1041 26.2631 33.4082 26.9033 33.6743 27.3552C34.1303 28.0959 34.1557 28.1963 34.0417 28.6105C33.839 29.3135 33.8896 30.983 34.143 31.6232C34.2697 31.9371 34.3964 32.4015 34.4217 32.6526C34.4851 33.1547 34.4471 33.1296 35.4479 33.1798C35.6126 33.1924 35.6506 33.1045 35.6253 32.8534C35.5873 32.5647 35.6633 32.4768 36.1954 32.2007C36.5375 32.0375 37.0315 31.8617 37.2849 31.8115C38.1844 31.6358 39.0206 32.4768 39.5147 34.0711C39.8441 35.1129 39.8441 35.7783 39.54 36.657C38.8686 38.6152 37.9564 39.9835 36.9555 40.5232C36.3728 40.8496 36.2081 40.8496 36.2461 40.5609C36.3221 39.8077 35.9673 39.6445 35.7266 40.335C35.5746 40.812 34.295 42.7702 33.9783 43.0213C33.8643 43.1091 33.3955 43.5108 32.9394 43.9125C31.1404 45.5068 29.9622 46.2976 28.2772 47.0006L27.2257 47.4399L27.1117 47.1135C26.909 46.5989 26.5416 46.7746 26.2755 47.5027C26.1995 47.7161 26.1742 47.7035 26.0728 47.352C25.9588 46.9127 25.7561 46.8123 25.6421 47.1261C25.5407 47.3646 25.338 47.3646 25.338 47.1261C25.338 46.8248 25.1227 46.9127 25.034 47.2516C24.9833 47.4274 24.8693 47.5654 24.7679 47.5654C24.6539 47.5654 24.5145 47.7035 24.4512 47.8793C24.3498 48.1554 24.2485 48.1931 23.7544 48.1931C23.2603 48.1931 23.159 48.1554 23.0576 47.8793C22.9943 47.7035 22.8422 47.5654 22.7282 47.5654C22.6142 47.5654 22.4495 47.4776 22.3608 47.352C22.1328 47.0508 21.9174 47.2642 21.9174 47.829C21.9174 48.1805 21.8667 48.3186 21.7274 48.3186C21.588 48.3186 21.5373 48.1805 21.5373 47.8165C21.5373 47.465 21.4866 47.3144 21.36 47.3144C21.2459 47.3144 21.1446 47.5027 21.0939 47.8165C21.0306 48.1931 20.9545 48.3186 20.7645 48.3186C20.6125 48.3186 20.5238 48.2307 20.5238 48.0675C20.5238 47.9295 20.4351 47.8165 20.3338 47.8165C20.2324 47.8165 20.1437 47.9044 20.1437 48.0048C20.1437 48.2307 19.5103 48.2684 19.4976 48.0299C19.4849 47.9546 19.4723 47.7663 19.4596 47.6282C19.4343 47.2893 19.0035 47.214 19.0035 47.5529C19.0035 47.8541 18.7881 47.8793 18.3067 47.6659C18.066 47.5529 17.99 47.4274 17.99 47.101C17.99 46.7746 17.9393 46.6867 17.7366 46.6867C17.5719 46.6867 17.4832 46.7746 17.4832 46.9378C17.4832 47.3395 17.2932 47.2391 16.381 46.3855C14.8988 45.0046 14.6707 44.3268 14.3793 40.5358C14.1513 37.611 13.3911 31.7362 13.1251 30.9077C13.0617 30.6943 13.0997 30.6692 13.4291 30.7194C13.7205 30.7571 14.0499 30.619 14.9368 30.0541C15.5702 29.665 16.2543 29.1378 16.457 28.8867C17.2679 27.8574 17.5592 27.0414 17.2045 26.7527C17.1158 26.6899 16.7611 26.5895 16.4064 26.5519C15.8616 26.4765 15.6842 26.5142 15.1395 26.7904C14.7974 26.9787 14.4553 27.2046 14.4047 27.305C14.2146 27.644 14.1006 27.4808 14.0753 26.8657C14.0753 26.5142 14.0499 26.1878 14.0373 26.1251C14.0119 26.0497 14.278 25.8112 14.62 25.5853C15.6082 24.92 16.2163 23.8781 16.5204 22.3215C16.5837 22.0203 16.6597 21.9826 17.3185 21.9073C18.3447 21.7943 20.0044 20.9533 20.6252 20.2629L21.0939 19.7231L22.2721 19.8612C23.7924 20.0369 24.8566 19.8737 25.6801 19.3339L26.2755 18.9573L26.947 19.5724C27.4158 19.9992 27.8465 20.2503 28.4039 20.4386ZM43.6828 24.556C43.7715 25.1961 42.6946 26.5268 41.7824 26.9159C40.8196 27.305 40.6042 27.0665 41.4657 26.5644C42.2258 26.1251 42.91 25.3342 43.0747 24.7191C43.176 24.3426 43.2774 24.217 43.4294 24.2421C43.5434 24.2672 43.6574 24.4053 43.6828 24.556ZM44.975 26.0749C44.975 26.6272 43.6955 27.6063 42.9733 27.6063C42.5426 27.6063 42.6439 27.3929 43.2394 27.0289C43.8095 26.6774 44.3289 26.1376 44.3416 25.8866C44.3542 25.51 44.975 25.6857 44.975 26.0749Z" fill="black"/>
<path d="M25.0847 24.4806C23.7671 24.6313 22.3355 25.3468 22.0061 26.0121C21.7907 26.4389 21.7907 26.5142 21.9554 26.7778C22.2848 27.2674 23.0196 27.3804 25.5914 27.3176C26.8837 27.2925 28.0365 27.2172 28.1506 27.1795C28.6953 26.941 28.86 25.6606 28.4293 25.0455C27.9479 24.3426 27.2637 24.2296 25.0847 24.4806Z" fill="black"/>
<path d="M25.1987 28.8239C25.0974 29.1252 25.072 29.8031 25.11 30.845C25.1861 32.5898 25.2621 32.753 26.0475 32.753C26.681 32.753 26.9851 32.2885 26.9851 31.3094C26.9851 30.5688 26.9597 30.5186 26.6683 30.4433C26.2756 30.3428 26.2503 30.142 26.643 30.0918C26.8837 30.0541 26.9217 29.9663 26.9597 29.4641C27.0104 28.6859 26.7063 28.3595 25.9209 28.3595C25.3888 28.3595 25.3507 28.3846 25.1987 28.8239Z" fill="black"/>
<path d="M19.0036 30.4182C19.0036 30.4433 18.8895 31.0458 18.7502 31.7613C18.5221 32.9287 18.3068 33.7196 17.838 35.2887C17.648 35.9289 17.876 36.431 18.4588 36.7072C18.8135 36.8829 19.1429 36.908 20.0044 36.8578C21.4487 36.7825 22.6396 36.2678 22.969 35.59C23.2477 35 23.2477 34.7364 22.931 34.3472C22.6522 33.9957 21.8414 33.7823 21.626 33.9957C21.55 34.0711 21.36 34.1338 21.208 34.1338C20.9926 34.1338 20.9546 34.1966 21.0053 34.4476C21.0306 34.6234 21.0053 34.7615 20.9293 34.7615C20.8659 34.7615 20.8152 34.661 20.8279 34.5355C20.8406 34.3598 20.7265 34.3221 20.0804 34.3221C19.5357 34.3221 19.333 34.3723 19.3583 34.4727C19.371 34.5606 19.333 34.6359 19.2569 34.6359C19.1936 34.6359 19.1303 34.7238 19.1303 34.8242C19.1303 34.9247 19.0796 35.0125 19.0036 35.0125C18.9402 35.0125 18.8769 35.2385 18.8769 35.5146C18.8769 36.0042 18.8895 36.0168 19.3076 36.0168C19.5483 36.0168 19.789 36.067 19.827 36.1423C19.9157 36.2804 19.485 36.3055 19.0416 36.1925C18.8009 36.1297 18.7502 36.0293 18.7502 35.6276C18.7502 35.364 18.8009 35.0251 18.8642 34.8619C19.0289 34.4602 19.3456 32.9915 19.5103 31.8994C19.6877 30.8073 19.6117 30.3679 19.2569 30.3679C19.1176 30.3679 19.0036 30.3931 19.0036 30.4182ZM22.2595 34.4602C22.6016 34.5481 22.7156 34.8242 22.5002 35.0376C21.8414 35.6653 21.2206 36.067 20.7392 36.1925C20.4605 36.2553 20.3845 36.2427 20.4225 36.1172C20.4605 36.0293 20.5619 35.954 20.6632 35.9414C21.0433 35.9163 21.322 35.7531 22.1581 35.0502C22.4242 34.8242 22.4495 34.774 22.2722 34.7615C22.1455 34.7615 22.0441 34.6987 22.0441 34.6234C22.0441 34.5481 21.9301 34.5104 21.7907 34.5481C21.6514 34.5857 21.5374 34.5606 21.5374 34.4979C21.5374 34.3723 21.8541 34.3472 22.2595 34.4602ZM20.2705 35.7657C20.2705 35.8285 20.1818 35.8912 20.0804 35.8912C19.9791 35.8912 19.8904 35.8285 19.8904 35.7657C19.8904 35.6904 19.9791 35.6402 20.0804 35.6402C20.1818 35.6402 20.2705 35.6904 20.2705 35.7657Z" fill="black"/>
<path d="M15.5195 31.1588C15.0255 31.912 15.1901 33.7823 15.7983 34.2594C16.1657 34.5481 16.5964 34.5857 16.8245 34.3598C16.9131 34.2719 16.9765 33.8828 16.9765 33.4685C16.9765 32.8409 16.9385 32.7154 16.7231 32.6651C16.4317 32.5898 16.381 32.3137 16.6598 32.2007C16.8878 32.1128 16.9131 31.4977 16.6978 31.2216C16.6091 31.1086 16.3557 30.9831 16.1277 30.9328C15.7856 30.8701 15.6969 30.9077 15.5195 31.1588Z" fill="black"/>
<path d="M37.1836 33.117C36.3981 33.594 35.6886 34.6736 35.752 35.2887C35.8153 35.9038 36.1701 35.9038 36.3601 35.3012C36.4488 35.0376 36.6008 34.7113 36.6895 34.5857C36.8542 34.3472 36.8669 34.3598 36.9682 34.6485C37.0316 34.8117 37.1456 35.4519 37.2343 36.0795C37.323 36.6946 37.4116 37.2218 37.437 37.2595C37.589 37.4101 37.8677 37.0963 37.9944 36.6067C38.1844 35.954 38.0071 34.8493 37.6143 34.2217C37.323 33.7196 37.4876 33.5062 38.1464 33.5062C38.7292 33.5062 38.7799 33.3304 38.2605 33.0668C37.7917 32.8283 37.6397 32.8283 37.1836 33.117Z" fill="black"/>
<path d="M26.0855 34.1715C25.4901 34.4853 25.262 34.887 25.6801 34.887C25.8195 34.887 26.0348 34.7991 26.1742 34.6987C26.4656 34.4853 27.4791 34.4476 27.9098 34.6485C28.0872 34.7238 28.2899 34.9247 28.3659 35.0878C28.5306 35.4644 28.7587 35.477 28.7587 35.1255C28.7587 34.0585 27.3017 33.5438 26.0855 34.1715Z" fill="black"/>
<path d="M23.6911 36.2553C23.5391 36.5565 23.5264 36.9833 23.6784 37.0712C23.8685 37.1842 24.1852 37.021 24.2612 36.7574C24.4513 36.18 23.9698 35.7532 23.6911 36.2553Z" fill="black"/>
<path d="M26.5796 36.2553C25.6168 36.5691 24.2485 37.3223 22.5889 38.4771C20.7899 39.7199 18.5854 40.7869 17.6226 40.8747C16.6598 40.9626 16.5457 40.8245 16.7864 39.8956C17.0272 39.0169 17.0272 38.8286 16.7611 38.7282C16.4697 38.6152 16.3304 38.8161 15.9756 39.9207L15.6716 40.8245L16.0136 41.1258C16.2037 41.2764 16.5837 41.4522 16.8625 41.4898C17.2679 41.5526 17.3566 41.6154 17.3566 41.8664C17.3566 42.3183 17.6099 42.7577 17.952 42.9083C18.18 43.0087 18.2434 43.1092 18.18 43.2723C17.9393 43.8121 18.0407 43.9628 18.8135 44.2891C19.5103 44.5779 19.7257 44.603 21.474 44.6155C23.2477 44.6155 23.425 44.5904 24.1978 44.2766C24.6539 44.1008 25.1607 43.9125 25.338 43.8623C26.3262 43.5736 27.7198 42.3936 28.594 41.0756C29.0501 40.4103 29.0754 40.3099 29.0627 39.4688C29.0501 38.7784 28.9614 38.3893 28.6953 37.7993C28.5053 37.3725 28.2646 36.9582 28.1759 36.8829C27.8972 36.657 28.0999 36.5189 28.6953 36.5189C28.9994 36.5189 29.2781 36.4687 29.3288 36.4059C29.5822 35.9917 27.7325 35.8912 26.5796 36.2553ZM27.8338 37.5357C28.3153 38.5022 28.3406 38.6529 27.9859 38.6529C27.8338 38.6529 27.3778 38.9667 26.9343 39.3809C26.1869 40.0714 26.0475 40.1341 24.1852 40.7618C23.1083 41.1258 21.9807 41.4773 21.6767 41.54C21.3726 41.6028 20.9419 41.7786 20.7138 41.9166C20.4731 42.0673 20.0804 42.1677 19.751 42.1677C19.4469 42.1802 19.0542 42.2556 18.8768 42.356C18.3827 42.6321 18.1547 42.5819 18.0027 42.1551C17.7873 41.5275 17.8253 41.4647 18.5981 41.2513C19.4976 41.0003 21.702 39.9333 22.5889 39.3182C24.9833 37.6361 25.7181 37.1967 26.719 36.8327C26.9723 36.7323 27.2384 36.6821 27.3017 36.6946C27.3778 36.7072 27.6058 37.0838 27.8338 37.5357ZM28.4546 39.4688C28.5306 39.9709 28.4926 40.109 28.1759 40.5609C26.9723 42.2807 25.8575 43.1468 24.1725 43.6991C23.0069 44.0632 22.7156 44.1134 21.4106 44.1134C20.6125 44.1134 19.713 44.0381 19.4216 43.9502C18.9275 43.7996 18.9022 43.7745 18.9148 43.3226C18.9148 42.6698 19.0669 42.5443 19.8143 42.5443C20.2958 42.5443 20.5872 42.469 20.9292 42.2305C21.1826 42.0547 21.5247 41.9166 21.6767 41.9166C21.9427 41.9166 24.6412 40.9752 24.8946 40.7869C25.034 40.6864 25.6801 40.4856 26.2502 40.3601C26.4402 40.3099 26.947 39.9709 27.3778 39.5943C27.8085 39.2178 28.2012 38.9039 28.2646 38.9039C28.3153 38.9039 28.4039 39.155 28.4546 39.4688Z" fill="black"/>
<path d="M22.9816 36.5816C22.931 36.6821 22.7663 36.7699 22.6016 36.7699C22.4242 36.7699 22.2468 36.8829 22.1582 37.0461C21.9428 37.4604 21.9301 37.4604 21.7401 37.2093C21.5881 37.0084 21.5374 36.9959 21.3727 37.134C21.2587 37.2218 21.1066 37.2595 21.0433 37.2218C20.8659 37.1089 20.7266 37.3976 20.8913 37.5608C20.9673 37.6361 21.0306 37.8244 21.0306 37.9876C21.0306 38.314 21.1826 38.3642 21.4107 38.088C21.4994 37.9876 21.7021 37.8997 21.8541 37.8997C22.1075 37.8997 23.273 37.4729 23.4124 37.3348C23.4377 37.3223 23.4124 37.0963 23.3744 36.8453C23.2857 36.3808 23.1083 36.2553 22.9816 36.5816Z" fill="black"/>
<path d="M19.7383 37.4854C19.4089 37.5357 19.3836 37.5859 19.3836 38.1005C19.3836 38.6654 19.4723 38.7658 19.7383 38.5022C19.8397 38.4018 19.9284 38.4018 20.0804 38.5273C20.4098 38.791 20.5998 38.5022 20.4478 37.9374C20.3211 37.4478 20.2704 37.4101 19.7383 37.4854Z" fill="black"/>
<path d="M17.952 37.8872C17.686 38.3265 17.6733 38.6529 17.914 38.6529C18.1674 38.6529 18.4968 38.1633 18.4968 37.8118C18.4968 37.4101 18.2181 37.4478 17.952 37.8872Z" fill="black"/>
<path d="M18.8769 38.2386C18.7755 38.4395 18.6868 38.6278 18.6615 38.678C18.6362 38.7282 18.6742 38.7909 18.7375 38.8412C18.9149 38.9416 19.3076 38.1508 19.1683 38.0127C19.0922 37.9374 18.9782 38.0378 18.8769 38.2386Z" fill="black"/>
<path d="M25.0973 44.2515C23.0703 45.1051 21.3346 45.3938 20.1818 45.0674C19.6497 44.9168 19.523 45.1051 19.9791 45.3938C20.4605 45.7076 22.4115 45.7076 23.6277 45.3812C25.0087 45.0172 26.7316 44.1385 26.7316 43.787C26.7316 43.5987 26.4783 43.674 25.0973 44.2515Z" fill="black"/>
<path d="M17.5846 1.70966C17.6606 1.73476 17.8126 1.73476 17.9013 1.70966C17.9773 1.672 17.914 1.64689 17.7366 1.64689C17.5593 1.64689 17.4959 1.672 17.5846 1.70966Z" fill="black"/>
<path d="M28.3913 1.65946C28.4167 1.67201 28.5434 1.77243 28.67 1.8603C28.8601 2.01094 28.8854 2.01094 28.8094 1.82264C28.7714 1.70967 28.6447 1.6218 28.5307 1.6218C28.4293 1.6218 28.366 1.63435 28.3913 1.65946Z" fill="black"/>
<path d="M16.4064 2.37496C16.3684 2.45028 16.4191 2.46283 16.5204 2.42518C16.7485 2.33731 16.7865 2.24944 16.6091 2.24944C16.5331 2.24944 16.4444 2.29965 16.4064 2.37496Z" fill="black"/>
<path d="M16.0263 2.62603C15.9883 2.68879 16.039 2.75156 16.153 2.75156C16.267 2.75156 16.3177 2.68879 16.2797 2.62603C16.2417 2.55071 16.1784 2.5005 16.153 2.5005C16.1277 2.5005 16.0643 2.55071 16.0263 2.62603Z" fill="black"/>
<path d="M29.5189 2.61347C29.5189 2.67623 29.6075 2.75155 29.6962 2.78921C29.8229 2.83942 29.8609 2.80176 29.8102 2.67623C29.7342 2.48794 29.5189 2.43773 29.5189 2.61347Z" fill="black"/>
<path d="M15.5196 3.00261C15.4816 3.06538 15.4943 3.12814 15.5703 3.12814C15.6336 3.12814 15.735 3.06538 15.773 3.00261C15.811 2.9273 15.7983 2.87709 15.7223 2.87709C15.659 2.87709 15.5576 2.9273 15.5196 3.00261Z" fill="black"/>
<path d="M30.279 3.26623C30.279 3.329 30.3423 3.3541 30.4057 3.31644C30.4817 3.27878 30.5324 3.21602 30.5324 3.17836C30.5324 3.15326 30.4817 3.12815 30.4057 3.12815C30.3423 3.12815 30.279 3.19091 30.279 3.26623Z" fill="black"/>
<path d="M14.9495 3.51727C14.9495 3.58003 15.0128 3.60514 15.0762 3.56748C15.1522 3.52982 15.2028 3.46706 15.2028 3.4294C15.2028 3.40429 15.1522 3.37919 15.0762 3.37919C15.0128 3.37919 14.9495 3.44195 14.9495 3.51727Z" fill="black"/>
<path d="M30.4057 3.5424C30.4057 3.68048 30.8998 4.19515 30.9631 4.11983C30.9885 4.09473 30.8745 3.93154 30.7098 3.7558C30.5451 3.59261 30.4057 3.49219 30.4057 3.5424Z" fill="black"/>
<path d="M14.4807 3.93151C14.1513 4.27044 14.088 4.49639 14.392 4.25789C14.5694 4.10725 14.8861 3.63024 14.7974 3.63024C14.7721 3.63024 14.6327 3.76832 14.4807 3.93151Z" fill="black"/>
<path d="M33.1042 3.71811C33.5096 3.74321 34.1304 3.74321 34.4978 3.71811C34.8652 3.693 34.5358 3.68045 33.763 3.68045C33.0028 3.68045 32.6988 3.693 33.1042 3.71811Z" fill="black"/>
<path d="M31.1658 3.88131C31.1658 3.94407 31.2165 4.00684 31.2799 4.00684C31.3559 4.00684 31.4446 3.94407 31.4826 3.88131C31.5206 3.80599 31.4699 3.75578 31.3685 3.75578C31.2545 3.75578 31.1658 3.80599 31.1658 3.88131Z" fill="black"/>
<path d="M35.7013 3.84366C35.79 3.88131 35.904 3.86876 35.942 3.8311C35.9927 3.79344 35.9167 3.75579 35.7773 3.76834C35.638 3.76834 35.6 3.806 35.7013 3.84366Z" fill="black"/>
<path d="M36.4615 4.09473C36.5375 4.11983 36.6895 4.11983 36.7782 4.09473C36.8542 4.05707 36.7909 4.03196 36.6135 4.03196C36.4362 4.03196 36.3728 4.05707 36.4615 4.09473Z" fill="black"/>
<path d="M37.2216 4.34576C37.2976 4.37087 37.4497 4.37087 37.5383 4.34576C37.6144 4.30811 37.551 4.283 37.3736 4.283C37.1963 4.283 37.1329 4.30811 37.2216 4.34576Z" fill="black"/>
<path d="M38.9953 5.03617C39.0586 5.09894 39.198 5.1366 39.2867 5.11149C39.388 5.07383 39.3247 5.02362 39.16 4.97341C38.9446 4.9232 38.8939 4.93575 38.9953 5.03617Z" fill="black"/>
<path d="M13.1378 5.36256C12.8211 5.70148 12.8717 5.81446 13.2011 5.51319C13.3532 5.37511 13.4419 5.23703 13.4038 5.19937C13.3785 5.16171 13.2518 5.23703 13.1378 5.36256Z" fill="black"/>
<path d="M39.8441 5.51319C39.8821 5.57596 40.0468 5.70149 40.1988 5.7768L40.4775 5.91489L40.1988 5.65128C39.9074 5.37511 39.7047 5.29979 39.8441 5.51319Z" fill="black"/>
<path d="M41.035 6.4421C41.3771 6.80613 41.4531 6.84379 41.3517 6.60529C41.3264 6.51742 41.1743 6.36678 41.0096 6.27891C40.7436 6.11572 40.7436 6.12828 41.035 6.4421Z" fill="black"/>
<path d="M8.39959 7.48398C8.51361 7.50908 8.71631 7.50908 8.843 7.48398C8.95703 7.44632 8.85567 7.42121 8.61496 7.42121C8.37425 7.42121 8.2729 7.44632 8.39959 7.48398Z" fill="black"/>
<path d="M11.5035 7.48398C11.5795 7.50908 11.7315 7.50908 11.8202 7.48398C11.8962 7.44632 11.8329 7.42121 11.6555 7.42121C11.4781 7.42121 11.4148 7.44632 11.5035 7.48398Z" fill="black"/>
<path d="M7.38605 7.73505C7.22136 7.76016 7.09467 7.84803 7.09467 7.91079C7.09467 8.06143 7.12 8.06143 7.6141 7.83548C8.03217 7.65974 7.95616 7.62208 7.38605 7.73505Z" fill="black"/>
<path d="M6.65125 8.14931C6.61324 8.21208 6.62591 8.27484 6.70192 8.27484C6.76527 8.27484 6.86662 8.21208 6.90463 8.14931C6.94263 8.07399 6.92997 8.02378 6.85395 8.02378C6.79061 8.02378 6.68925 8.07399 6.65125 8.14931Z" fill="black"/>
<path d="M42.5679 8.32503C42.5679 8.42545 42.6186 8.53843 42.682 8.57609C42.7453 8.6263 42.7706 8.53843 42.7326 8.40035C42.6566 8.11163 42.5679 8.07397 42.5679 8.32503Z" fill="black"/>
<path d="M5.8911 8.65143C5.54904 9.02802 5.73907 9.07823 6.08114 8.7142C6.24584 8.53846 6.32185 8.40037 6.24584 8.40037C6.18249 8.40037 6.01779 8.51335 5.8911 8.65143Z" fill="black"/>
<path d="M42.948 9.22885C42.948 9.31672 43.0367 9.56778 43.138 9.79373C43.3027 10.1954 43.3154 10.1954 43.3281 9.89415C43.3281 9.71841 43.2394 9.46735 43.138 9.32927C43.0367 9.20374 42.948 9.15353 42.948 9.22885Z" fill="black"/>
<path d="M4.47216 10.0699C4.24411 10.2958 4.05408 10.5595 4.05408 10.6473C4.05408 10.8105 4.92824 9.91925 4.94091 9.74351C4.94091 9.60543 4.91557 9.63054 4.47216 10.0699Z" fill="black"/>
<path d="M43.3534 10.5971C43.3534 10.798 43.3787 10.8733 43.4167 10.7478C43.4421 10.6348 43.4421 10.459 43.4167 10.3712C43.3787 10.2959 43.3534 10.3837 43.3534 10.5971Z" fill="black"/>
<path d="M3.68671 11.0741C3.68671 11.2122 3.54735 11.4884 3.40799 11.7018L3.12927 12.1035L3.47134 11.752C3.69938 11.526 3.80073 11.3126 3.76272 11.1243C3.72472 10.9109 3.69938 10.8984 3.68671 11.0741Z" fill="black"/>
<path d="M43.6068 11.4131C43.6068 11.5888 43.6321 11.6516 43.6702 11.5637C43.6955 11.4884 43.6955 11.3377 43.6702 11.2499C43.6321 11.1745 43.6068 11.2373 43.6068 11.4131Z" fill="black"/>
<path d="M43.5815 11.9654C43.5815 12.116 43.6955 12.1662 44.1263 12.1537C44.557 12.1286 44.5823 12.116 44.2783 12.0784C44.0756 12.0407 43.8222 11.9654 43.7462 11.8901C43.6195 11.7897 43.5815 11.8148 43.5815 11.9654Z" fill="black"/>
<path d="M3.05327 12.3671C3.05327 12.5052 3.09127 12.5428 3.12928 12.4424C3.16729 12.3545 3.15462 12.2415 3.11661 12.2039C3.0786 12.1537 3.0406 12.229 3.05327 12.3671Z" fill="black"/>
<path d="M45.0764 12.2541C45.1524 12.2792 45.3045 12.2792 45.3931 12.2541C45.4692 12.2164 45.4058 12.1913 45.2284 12.1913C45.0511 12.1913 44.9877 12.2164 45.0764 12.2541Z" fill="black"/>
<path d="M45.7098 12.5052C45.7859 12.5303 45.9379 12.5303 46.0266 12.5052C46.1026 12.4675 46.0392 12.4424 45.8619 12.4424C45.6845 12.4424 45.6212 12.4675 45.7098 12.5052Z" fill="black"/>
<path d="M46.3053 12.7939C46.3433 12.8566 46.4573 12.9194 46.546 12.9194C46.6347 12.9194 46.8374 13.0575 47.0021 13.2332C47.1668 13.409 47.3568 13.5471 47.4202 13.5471C47.4835 13.5471 47.2935 13.3462 47.0021 13.1077C46.4953 12.6935 46.1406 12.5303 46.3053 12.7939Z" fill="black"/>
<path d="M2.68585 13.4215C2.68585 13.5973 2.71119 13.66 2.7492 13.5722C2.77454 13.4968 2.77454 13.3462 2.7492 13.2583C2.71119 13.183 2.68585 13.2458 2.68585 13.4215Z" fill="black"/>
<path d="M47.6989 13.5471C47.6609 13.6224 47.7116 13.6349 47.8129 13.5973C48.041 13.5094 48.079 13.4215 47.9016 13.4215C47.8256 13.4215 47.7369 13.4717 47.6989 13.5471Z" fill="black"/>
<path d="M2.43243 13.9236C2.43243 14.0994 2.45777 14.1621 2.49578 14.0743C2.52112 13.999 2.52112 13.8483 2.49578 13.7605C2.45777 13.6851 2.43243 13.7479 2.43243 13.9236Z" fill="black"/>
<path d="M48.3957 14.5387C48.3957 14.6015 48.4464 14.7019 48.5224 14.7396C48.5857 14.7772 48.7884 15.1162 48.9531 15.4676C49.1305 15.8317 49.2699 16.02 49.2699 15.8819C49.2825 15.7564 49.1558 15.4425 49.0038 15.1915C48.6744 14.6517 48.3957 14.363 48.3957 14.5387Z" fill="black"/>
<path d="M49.4599 17.8778C49.4599 18.7063 49.4726 19.0327 49.4979 18.5933C49.5232 18.1665 49.5232 17.4887 49.4979 17.087C49.4726 16.6978 49.4599 17.0493 49.4599 17.8778Z" fill="black"/>
<path d="M2.30579 16.9363C2.30579 17.1121 2.33112 17.1748 2.36913 17.087C2.39447 17.0117 2.39447 16.861 2.36913 16.7731C2.33112 16.6978 2.30579 16.7606 2.30579 16.9363Z" fill="black"/>
<path d="M2.30575 17.7648C2.21706 17.8652 2.20439 17.9406 2.26774 17.9406C2.39443 17.9406 2.58447 17.7021 2.52112 17.6267C2.49578 17.6142 2.39443 17.6644 2.30575 17.7648Z" fill="black"/>
<path d="M1.35559 18.5306C1.30491 18.5682 1.26691 18.6686 1.26691 18.744C1.26691 18.8193 1.33025 18.8067 1.41894 18.7189C1.49495 18.6435 1.53296 18.5431 1.50762 18.5055C1.46961 18.4678 1.3936 18.4803 1.35559 18.5306Z" fill="black"/>
<path d="M0.595458 19.5724C0.481437 19.7733 0.367416 20.1248 0.329409 20.3507C0.291402 20.5767 0.291402 20.6771 0.329409 20.5767C0.380085 20.4763 0.481437 20.2126 0.57012 20.0118C0.924853 19.1707 0.937522 18.8695 0.595458 19.5724Z" fill="black"/>
<path d="M48.7758 20.765C48.7758 20.8654 48.8011 20.9533 48.8264 20.9533C48.8518 20.9533 48.9024 20.8654 48.9531 20.765C48.9911 20.6646 48.9658 20.5767 48.9024 20.5767C48.8264 20.5767 48.7758 20.6646 48.7758 20.765Z" fill="black"/>
<path d="M0 21.3926C0 21.493 0.0253381 21.5809 0.0506761 21.5809C0.0760142 21.5809 0.12669 21.493 0.177366 21.3926C0.215374 21.2922 0.190035 21.2043 0.12669 21.2043C0.0506761 21.2043 0 21.2922 0 21.3926Z" fill="black"/>
<path d="M0.0380249 22.5851C0.0380249 22.899 0.063363 23.0245 0.088701 22.8613C0.114039 22.7107 0.114039 22.4596 0.088701 22.2964C0.063363 22.1458 0.0380249 22.2713 0.0380249 22.5851Z" fill="black"/>
<path d="M47.8889 22.3466C47.8889 22.4094 47.9523 22.4345 48.0156 22.3968C48.0916 22.3592 48.1423 22.2964 48.1423 22.2588C48.1423 22.2337 48.0916 22.2085 48.0156 22.2085C47.9523 22.2085 47.8889 22.2713 47.8889 22.3466Z" fill="black"/>
<path d="M49.5993 23.7149C49.726 23.853 49.8527 23.9409 49.8907 23.9032C49.9793 23.8279 49.6626 23.4639 49.4979 23.4639C49.4346 23.4639 49.4726 23.5768 49.5993 23.7149Z" fill="black"/>
<path d="M0.0380249 24.7819C0.0380249 25.1962 0.063363 25.3468 0.088701 25.1208C0.114039 24.8949 0.114039 24.556 0.088701 24.3677C0.063363 24.1794 0.0380249 24.3677 0.0380249 24.7819Z" fill="black"/>
<path d="M50.1694 24.3175C50.1694 24.3802 50.2581 24.5058 50.3594 24.5936C50.4608 24.6815 50.5494 24.694 50.5494 24.6187C50.5494 24.556 50.4608 24.4304 50.3594 24.3426C50.2581 24.2547 50.1694 24.2421 50.1694 24.3175Z" fill="black"/>
<path d="M50.8281 25.5978C50.8281 25.7736 50.8535 25.8363 50.8915 25.7485C50.9168 25.6732 50.9168 25.5225 50.8915 25.4346C50.8535 25.3593 50.8281 25.4221 50.8281 25.5978Z" fill="black"/>
<path d="M51.0309 26.5644C51.0942 27.6063 51.1449 27.6942 51.1702 26.8155C51.1702 26.351 51.1449 25.9744 51.0816 25.9744C51.0309 25.9744 51.0055 26.238 51.0309 26.5644Z" fill="black"/>
<path d="M0.392762 27.0038C0.380093 27.2674 0.43077 27.4808 0.494115 27.4808C0.55746 27.4808 0.633474 27.5561 0.671481 27.6314C0.747495 27.8448 0.646143 27.3929 0.506784 26.9159L0.405431 26.5393L0.392762 27.0038Z" fill="black"/>
<path d="M51.0815 27.9829C51.0815 28.1586 51.1069 28.2214 51.1449 28.1335C51.1702 28.0582 51.1702 27.9076 51.1449 27.8197C51.1069 27.7444 51.0815 27.8071 51.0815 27.9829Z" fill="black"/>
<path d="M50.8281 28.7361C50.8281 28.9118 50.8535 28.9746 50.8915 28.8867C50.9168 28.8114 50.9168 28.6608 50.8915 28.5729C50.8535 28.4976 50.8281 28.5603 50.8281 28.7361Z" fill="black"/>
<path d="M1.02617 28.8114C1.02617 28.9495 1.06417 28.9871 1.10218 28.8867C1.14019 28.7988 1.12752 28.6859 1.08951 28.6482C1.0515 28.598 1.0135 28.6733 1.02617 28.8114Z" fill="black"/>
<path d="M1.27954 29.1127C1.27954 29.2131 1.33022 29.4139 1.39356 29.552C1.45691 29.7152 1.50758 29.7278 1.50758 29.6148C1.50758 29.5144 1.45691 29.3135 1.39356 29.1754C1.33022 29.0122 1.27954 28.9997 1.27954 29.1127Z" fill="black"/>
<path d="M2.34379 30.8701C2.38179 30.9328 2.44514 30.9956 2.48314 30.9956C2.50848 30.9956 2.53382 30.9328 2.53382 30.8701C2.53382 30.7948 2.47048 30.7445 2.39446 30.7445C2.33112 30.7445 2.30578 30.7948 2.34379 30.8701Z" fill="black"/>
<path d="M49.4979 31.1337C49.2952 31.3345 49.1939 31.4977 49.2572 31.4977C49.3966 31.4977 49.9793 30.8952 49.9033 30.8199C49.878 30.7947 49.688 30.9328 49.4979 31.1337Z" fill="black"/>
<path d="M2.66052 31.2341C2.66052 31.2969 2.72387 31.3973 2.78721 31.4349C2.86323 31.4726 2.9139 31.46 2.9139 31.3847C2.9139 31.322 2.86323 31.2215 2.78721 31.1839C2.72387 31.1462 2.66052 31.1588 2.66052 31.2341Z" fill="black"/>
<path d="M48.5984 32.0375C48.2563 32.3764 48.2183 32.4768 48.3577 32.6024C48.4844 32.7279 48.5224 32.7153 48.5224 32.5396C48.5224 32.4266 48.6744 32.163 48.8645 31.9747C49.3459 31.4852 49.1052 31.5354 48.5984 32.0375Z" fill="black"/>
<path d="M3.50931 32.0124C3.66134 32.163 3.82604 32.2634 3.86404 32.2258C3.90205 32.1881 3.77536 32.0626 3.58532 31.9371L3.23059 31.7237L3.50931 32.0124Z" fill="black"/>
<path d="M4.28216 32.5898C4.63689 32.9413 4.94095 33.1672 4.94095 33.0919C4.94095 32.979 4.26949 32.3764 4.15547 32.3764C4.09212 32.3764 4.15547 32.4768 4.28216 32.5898Z" fill="black"/>
<path d="M5.27032 33.2175C5.33367 33.2802 5.42235 33.3681 5.47303 33.4434C5.5237 33.5187 5.57438 33.4685 5.57438 33.343C5.57438 33.23 5.4857 33.1296 5.35901 33.1296C5.24498 33.1296 5.20698 33.1673 5.27032 33.2175Z" fill="black"/>
<path d="M48.8138 34.3221C48.8138 34.7991 48.8391 34.9874 48.8645 34.7238C48.8898 34.4728 48.8898 34.0711 48.8645 33.8451C48.8391 33.6317 48.8138 33.8326 48.8138 34.3221Z" fill="black"/>
<path d="M7.42408 36.318C7.46208 36.4185 7.60144 36.5189 7.7408 36.5565C8.03219 36.6319 7.94351 36.4436 7.60144 36.2678C7.39874 36.1674 7.3734 36.18 7.42408 36.318Z" fill="black"/>
<path d="M48.1423 36.6444C48.1423 36.7072 48.2057 36.7699 48.269 36.7699C48.345 36.7699 48.3957 36.7072 48.3957 36.6444C48.3957 36.5691 48.345 36.5189 48.269 36.5189C48.2057 36.5189 48.1423 36.5691 48.1423 36.6444Z" fill="black"/>
<path d="M8.55158 37.021C8.58958 37.0838 8.81763 37.1716 9.05834 37.2218C9.31172 37.2595 9.53976 37.3474 9.57777 37.4101C9.61578 37.4729 9.70446 37.5231 9.79314 37.5231C10.0212 37.5231 9.46375 37.1591 9.22304 37.1465C9.09635 37.1465 8.99499 37.0838 8.99499 37.021C8.99499 36.9457 8.88097 36.8955 8.72894 36.8955C8.58958 36.8955 8.5009 36.9457 8.55158 37.021Z" fill="black"/>
<path d="M47.7243 37.385C47.6736 37.5984 47.6863 37.6486 47.7876 37.5482C47.851 37.4855 47.889 37.3474 47.8636 37.2595C47.8256 37.1591 47.7749 37.2218 47.7243 37.385Z" fill="black"/>
<path d="M10.7433 37.611C10.9587 37.6361 11.3388 37.6361 11.5668 37.611C11.7822 37.5859 11.6048 37.5608 11.1487 37.5608C10.6927 37.5608 10.5153 37.5859 10.7433 37.611Z" fill="black"/>
<path d="M12.2636 37.8369C12.2889 38.0127 12.3396 38.1508 12.365 38.1508C12.3903 38.1508 12.4156 38.0127 12.4156 37.8369C12.4156 37.6612 12.365 37.5231 12.3016 37.5231C12.2509 37.5231 12.2256 37.6612 12.2636 37.8369Z" fill="black"/>
<path d="M47.1795 38.1759L46.9388 38.4646L47.2302 38.2261C47.3822 38.088 47.5089 37.9625 47.5089 37.9373C47.5089 37.8369 47.4075 37.9122 47.1795 38.1759Z" fill="black"/>
<path d="M12.5424 39.3433C12.5424 39.519 12.479 39.6571 12.403 39.6571C12.3016 39.6571 12.3016 39.7073 12.3903 39.8077C12.4663 39.8956 12.5424 40.1341 12.5804 40.3475C12.6057 40.5484 12.6437 40.3475 12.6564 39.8705C12.6564 39.406 12.6437 39.0295 12.6057 39.0295C12.5677 39.0295 12.5424 39.1675 12.5424 39.3433Z" fill="black"/>
<path d="M45.1017 39.9082C45.0004 39.9709 44.9497 40.0462 44.9877 40.0839C45.0257 40.1216 45.1651 40.0713 45.3044 39.9709C45.5705 39.7701 45.4058 39.7199 45.1017 39.9082Z" fill="black"/>
<path d="M44.443 40.2471C44.519 40.2722 44.671 40.2722 44.7597 40.2471C44.8357 40.2094 44.7724 40.1843 44.595 40.1843C44.4177 40.1843 44.3543 40.2094 44.443 40.2471Z" fill="black"/>
<path d="M42.2512 40.4103C42.2132 40.473 42.2385 40.5358 42.3019 40.5358C42.3779 40.5358 42.4412 40.473 42.4412 40.4103C42.4412 40.335 42.4159 40.2848 42.3906 40.2848C42.3525 40.2848 42.2892 40.335 42.2512 40.4103Z" fill="black"/>
<path d="M41.5924 41.3518C41.5544 41.4647 41.5544 41.5903 41.6051 41.6279C41.6431 41.6781 41.6811 41.6154 41.6811 41.5024C41.6811 41.402 41.7571 41.2764 41.8458 41.2513C41.9598 41.2011 41.9598 41.176 41.8331 41.176C41.7444 41.1635 41.6431 41.2513 41.5924 41.3518Z" fill="black"/>
<path d="M40.8576 42.1677C40.8196 42.2304 40.845 42.2932 40.9083 42.2932C40.9843 42.2932 41.0477 42.2304 41.0477 42.1677C41.0477 42.0924 41.0223 42.0422 40.997 42.0422C40.959 42.0422 40.8956 42.0924 40.8576 42.1677Z" fill="black"/>
<path d="M12.8844 42.7702C12.9731 43.6364 13.0238 43.6991 13.0365 42.9585C13.0491 42.607 12.9984 42.2807 12.9351 42.243C12.8718 42.2054 12.8591 42.4439 12.8844 42.7702Z" fill="black"/>
<path d="M40.4395 42.4941C40.3509 42.5945 40.3382 42.6698 40.4015 42.6698C40.5282 42.6698 40.7183 42.4313 40.6549 42.356C40.6296 42.3434 40.5282 42.3936 40.4395 42.4941Z" fill="black"/>
<path d="M39.3247 43.2347C39.0713 43.423 39.1853 43.4606 39.5781 43.31C39.7174 43.2598 39.7681 43.1845 39.6921 43.1343C39.6288 43.0966 39.4514 43.1343 39.3247 43.2347Z" fill="black"/>
<path d="M38.6152 43.6364C38.7039 43.674 38.8179 43.6615 38.8559 43.6238C38.9066 43.5862 38.8306 43.5485 38.6912 43.5611C38.5518 43.5611 38.5138 43.5987 38.6152 43.6364Z" fill="black"/>
<path d="M38.1085 43.8874C38.1845 43.9125 38.3365 43.9125 38.4252 43.8874C38.5012 43.8498 38.4379 43.8247 38.2605 43.8247C38.0831 43.8247 38.0198 43.8498 38.1085 43.8874Z" fill="black"/>
<path d="M35.3846 44.1134C35.1439 44.377 35.1819 44.49 35.448 44.264C35.562 44.151 35.9547 44.0506 36.2968 44.013L36.9302 43.9753L36.2334 43.9502C35.7774 43.9376 35.486 44.0004 35.3846 44.1134Z" fill="black"/>
<path d="M37.2469 43.9753C37.2469 44.0004 37.3356 44.0506 37.437 44.1008C37.5383 44.1385 37.627 44.1134 37.627 44.0506C37.627 43.9753 37.5383 43.9251 37.437 43.9251C37.3356 43.9251 37.2469 43.9502 37.2469 43.9753Z" fill="black"/>
<path d="M13.2011 44.4272C13.2011 44.6657 13.2264 44.7661 13.2645 44.6406C13.2898 44.5276 13.2898 44.3268 13.2645 44.2013C13.2264 44.0883 13.2011 44.1887 13.2011 44.4272Z" fill="black"/>
<path d="M34.9412 44.741C34.8525 44.854 34.6625 45.0549 34.5358 45.1804C34.3964 45.3185 34.3204 45.4314 34.3711 45.4314C34.4725 45.4314 35.2199 44.7034 35.2199 44.6155C35.2199 44.5025 35.1059 44.5527 34.9412 44.741Z" fill="black"/>
<path d="M33.915 45.7829C33.5983 46.1218 33.649 46.2348 33.9784 45.9336C34.1304 45.7955 34.2191 45.6574 34.1811 45.6197C34.1557 45.5821 34.029 45.6574 33.915 45.7829Z" fill="black"/>
<path d="M13.5558 46.3604C13.5558 46.4608 13.6065 46.5738 13.6699 46.6114C13.7332 46.6616 13.7586 46.5738 13.7205 46.4357C13.6445 46.147 13.5558 46.1093 13.5558 46.3604Z" fill="black"/>
<path d="M32.7874 46.6491C32.8761 46.6867 32.9901 46.6742 33.0281 46.6365C33.0788 46.5989 33.0028 46.5612 32.8634 46.5738C32.7241 46.5738 32.6861 46.6114 32.7874 46.6491Z" fill="black"/>
<path d="M32.2553 46.8876C32.116 46.9755 32.04 47.0884 32.0653 47.1261C32.1033 47.1637 32.2427 47.101 32.382 47.0131C32.5087 46.9127 32.5974 46.7997 32.5594 46.7746C32.5214 46.7369 32.382 46.7872 32.2553 46.8876Z" fill="black"/>
<path d="M31.6726 47.3144C31.5585 47.3897 31.5459 47.4399 31.6346 47.4399C31.7106 47.4399 31.8246 47.3771 31.8626 47.3144C31.9639 47.1637 31.9133 47.1637 31.6726 47.3144Z" fill="black"/>
<path d="M14.392 47.691C14.1893 47.7537 14.1767 47.7914 14.3414 47.8416C14.5441 47.9295 14.9115 47.7537 14.7468 47.6659C14.6834 47.6282 14.5187 47.6408 14.392 47.691Z" fill="black"/>
<path d="M31.2165 47.6784C31.2672 47.7412 31.2165 47.829 31.1405 47.8541C31.0392 47.8918 31.0645 47.9295 31.2039 47.9295C31.3179 47.942 31.4192 47.8541 31.4192 47.7537C31.4192 47.6533 31.3559 47.5654 31.2799 47.5654C31.2165 47.5654 31.1785 47.6156 31.2165 47.6784Z" fill="black"/>
<path d="M30.393 48.1554C30.241 48.3563 30.241 48.3688 30.4057 48.2433C30.507 48.168 30.6844 48.0676 30.7857 48.0299C30.9504 47.9671 30.9378 47.9546 30.7731 47.9546C30.6591 47.942 30.4817 48.0425 30.393 48.1554Z" fill="black"/>
<path d="M15.3295 48.3688C15.3295 48.5195 16.3684 49.0843 16.5584 49.0341C16.7358 48.9839 16.7358 48.9714 16.5077 48.9588C16.3431 48.9588 16.2164 48.8835 16.2164 48.8207C16.2164 48.7454 16.1403 48.6952 16.039 48.6952C15.9503 48.6952 15.7983 48.6073 15.7096 48.5069C15.5702 48.3437 15.3295 48.2433 15.3295 48.3688Z" fill="black"/>
<path d="M29.1134 48.7454C28.9234 48.8458 28.67 48.9463 28.5433 48.9714C28.3913 49.009 28.4546 49.0467 28.6953 49.0843C28.974 49.122 29.1514 49.0592 29.3541 48.8584C29.6835 48.532 29.6075 48.4944 29.1134 48.7454Z" fill="black"/>
<path d="M16.7485 49.4484C16.7485 49.6241 16.7738 49.6869 16.8118 49.599C16.8372 49.5237 16.8372 49.3731 16.8118 49.2852C16.7738 49.2099 16.7485 49.2726 16.7485 49.4484Z" fill="black"/>
<path d="M27.6311 49.5362C27.6311 49.7622 27.5678 49.9505 27.5171 49.9505C27.4538 49.9505 27.3398 50.0886 27.2637 50.2643C27.0484 50.7288 27.2891 50.6409 27.5425 50.1639C27.6691 49.9379 27.7452 49.6241 27.7072 49.4484C27.6565 49.1848 27.6565 49.1973 27.6311 49.5362Z" fill="black"/>
<path d="M27.9732 49.2852C28.0619 49.3228 28.1759 49.3103 28.2139 49.2726C28.2646 49.235 28.1886 49.1973 28.0492 49.2099C27.9099 49.2099 27.8719 49.2475 27.9732 49.2852Z" fill="black"/>
<path d="M17.99 49.8124C17.914 49.963 17.9013 50.076 17.9773 50.076C18.104 50.076 18.2814 49.6994 18.1927 49.6116C18.1674 49.5739 18.0787 49.6743 17.99 49.8124Z" fill="black"/>
<path d="M19.5103 50.0886C19.5103 50.1513 19.5737 50.1764 19.637 50.1388C19.713 50.1011 19.7637 50.0384 19.7637 50.0007C19.7637 49.9756 19.713 49.9505 19.637 49.9505C19.5737 49.9505 19.5103 50.0133 19.5103 50.0886Z" fill="black"/>
<path d="M20.1691 50.0635C20.2198 50.302 20.9039 50.9924 20.9926 50.9045C21.0306 50.8668 20.8532 50.6283 20.5998 50.3647C20.3338 50.1011 20.1437 49.963 20.1691 50.0635Z" fill="black"/>
<path d="M25.6928 50.0384C25.7815 50.076 25.8955 50.0635 25.9335 50.0258C25.9842 49.9881 25.9082 49.9505 25.7688 49.963C25.6295 49.963 25.5915 50.0007 25.6928 50.0384Z" fill="black"/>
<path d="M23.6024 50.2643C23.3997 50.4903 23.387 50.6786 23.5898 50.4777C23.6784 50.3898 23.8811 50.3271 24.0712 50.3145C24.3626 50.3145 24.3626 50.302 24.1345 50.2015C23.7925 50.0509 23.7798 50.0635 23.6024 50.2643Z" fill="black"/>
<path d="M26.0982 50.189C26.0982 50.2643 26.1489 50.3522 26.2249 50.3898C26.3009 50.4275 26.3136 50.3773 26.2756 50.2769C26.1869 50.0509 26.0982 50.0133 26.0982 50.189Z" fill="black"/>
<path d="M24.9326 50.2894C25.0213 50.3271 25.1353 50.3145 25.1733 50.2769C25.224 50.2392 25.148 50.2015 25.0086 50.2141C24.8693 50.2141 24.8313 50.2518 24.9326 50.2894Z" fill="black"/>
<path d="M21.5754 50.4526C21.6007 50.553 21.7274 50.6535 21.8668 50.666C22.0315 50.6911 22.0568 50.6786 21.9174 50.6158C21.8161 50.5781 21.6767 50.4777 21.6261 50.4024C21.55 50.3145 21.5374 50.3271 21.5754 50.4526Z" fill="black"/>
<path d="M26.5163 50.666C26.6303 50.6911 26.8077 50.6911 26.8964 50.666C26.9724 50.6283 26.8837 50.6032 26.6683 50.6032C26.4656 50.6032 26.3896 50.6283 26.5163 50.666Z" fill="black"/>
<path d="M23.5644 50.9673C23.5644 51.03 23.6277 51.0552 23.6911 51.0175C23.7671 50.9798 23.8178 50.9171 23.8178 50.8794C23.8178 50.8543 23.7671 50.8292 23.6911 50.8292C23.6277 50.8292 23.5644 50.892 23.5644 50.9673Z" fill="black"/>
<path d="M22.5255 51.0426C22.6142 51.0803 22.7282 51.0677 22.7662 51.03C22.8169 50.9924 22.7409 50.9547 22.6015 50.9673C22.4622 50.9673 22.4242 51.0049 22.5255 51.0426Z" fill="black"/>
</svg>
